<svg width="12" height="11" viewBox="0 0 12 11" fill="none" xmlns="http://www.w3.org/2000/svg">
<path d="M9.34673 5.74044H3.5011C3.35256 5.74044 3.22804 5.68933 3.12756 5.5871C3.02707 5.48488 2.97683 5.35822 2.97683 5.2071C2.97683 5.05599 3.02707 4.92933 3.12756 4.8271C3.22804 4.72488 3.35256 4.67377 3.5011 4.67377H9.34673L8.9011 4.22044C8.79625 4.11377 8.746 3.98933 8.75037 3.8471C8.75474 3.70488 8.80498 3.58044 8.9011 3.47377C9.00595 3.3671 9.13047 3.31155 9.27464 3.3071C9.41882 3.30266 9.54333 3.35377 9.64819 3.46044L10.9982 4.83377C11.103 4.94044 11.1555 5.06488 11.1555 5.2071C11.1555 5.34933 11.103 5.47377 10.9982 5.58044L9.64819 6.95377C9.54333 7.06044 9.41882 7.11155 9.27464 7.1071C9.13047 7.10266 9.00595 7.0471 8.9011 6.94044C8.80498 6.83377 8.75474 6.70933 8.75037 6.5671C8.746 6.42488 8.79625 6.30044 8.9011 6.19377L9.34673 5.74044ZM6.64673 3.07377V1.47377H1.40401V8.94044H6.64673V7.34044C6.64673 7.18933 6.69697 7.06266 6.79746 6.96044C6.89794 6.85822 7.02246 6.8071 7.171 6.8071C7.31955 6.8071 7.44406 6.85822 7.54455 6.96044C7.64503 7.06266 7.69527 7.18933 7.69527 7.34044V8.94044C7.69527 9.23377 7.5926 9.48488 7.38726 9.69377C7.18192 9.90266 6.93508 10.0071 6.64673 10.0071H1.40401C1.11566 10.0071 0.868818 9.90266 0.663478 9.69377C0.458139 9.48488 0.355469 9.23377 0.355469 8.94044V1.47377C0.355469 1.18044 0.458139 0.929327 0.663478 0.720438C0.868818 0.511549 1.11566 0.407104 1.40401 0.407104H6.64673C6.93508 0.407104 7.18192 0.511549 7.38726 0.720438C7.5926 0.929327 7.69527 1.18044 7.69527 1.47377V3.07377C7.69527 3.22488 7.64503 3.35155 7.54455 3.45377C7.44406 3.55599 7.31955 3.6071 7.171 3.6071C7.02246 3.6071 6.89794 3.55599 6.79746 3.45377C6.69697 3.35155 6.64673 3.22488 6.64673 3.07377Z" fill="#F3832D"/>
<path d="M9.34561 6.1786C9.19563 6.23183 9.04585 6.25458 8.89157 6.23139C8.85642 6.22615 8.85973 6.18501 8.84528 6.17835C8.81872 6.16606 8.77414 6.21046 8.76789 6.21046C8.72911 6.21102 8.74427 6.13901 8.73905 6.13624C8.68086 6.107 8.69761 6.18903 8.64197 6.19691C8.56952 6.20719 8.47655 6.19252 8.38926 6.18849C8.3586 6.18687 8.37225 6.13205 8.30608 6.13667C8.25921 6.13989 8.11543 6.20238 8.04922 6.13563C8.04884 6.11042 8.0572 6.0826 8.06071 6.05659C7.96581 6.16163 7.93184 6.15702 7.79729 6.13142C7.776 6.12738 7.75585 6.17054 7.71835 6.15461C7.68087 6.13867 7.67928 6.07214 7.60391 6.07294C7.57718 6.07339 7.56095 6.12031 7.51996 6.12232C7.40337 6.12817 7.18131 6.06989 7.08561 6.06788C6.89716 6.06385 6.79462 6.14392 6.62726 6.1161C6.61437 6.11408 6.64268 6.06266 6.61905 6.06165C6.59523 6.06064 6.57041 6.12877 6.56456 6.13038C6.50129 6.14791 6.36759 6.05665 6.3324 6.06769C6.24686 6.09472 6.33115 6.12474 6.21261 6.13764C6.09972 6.14992 5.94388 6.06123 5.83198 6.04389C5.70232 6.02374 5.6605 6.15257 5.56286 6.01807C5.21993 6.02594 4.87563 6.03075 4.53231 6.0376C4.53329 6.01079 4.53442 5.98397 4.53559 5.95716C4.50845 5.97571 4.48129 5.99429 4.45415 6.01264C4.45825 5.99268 4.46214 5.9727 4.46624 5.95294C4.33874 6.02996 4.22509 6.06969 4.07612 6.04853C4.0732 6.04813 4.08086 5.99467 4.07845 5.99329C4.04486 5.98321 4.00732 6.02433 3.97783 6.01465C3.90654 5.99146 3.78546 5.87489 3.83878 6.01746C3.73237 5.99861 3.61404 6.01159 3.5011 6.01612C3.4109 6.019 3.31482 6.00391 3.23444 5.96528C3.13644 5.91633 3.15447 5.82351 3.12098 5.79719C3.08781 5.76863 3.06386 5.84008 3.04863 5.83257C3.01646 5.81579 2.98082 5.78949 2.95294 5.75875C2.90001 5.70182 2.87395 5.62547 2.91384 5.58919C2.87638 5.59075 2.83716 5.58867 2.79807 5.58422C2.86962 5.55603 2.74694 5.28732 2.76453 5.2071C2.76454 5.20657 2.76455 5.20605 2.76457 5.20554C2.76504 5.19179 2.80459 5.19074 2.80446 5.18091C2.80594 5.07146 2.7503 5.0304 2.76748 4.91593C2.77579 4.87668 2.81514 4.95743 2.82852 4.8568C2.8315 4.84889 2.76646 4.82113 2.8389 4.71588C2.86046 4.68645 2.88676 4.6535 2.91755 4.62067C3.03467 4.47519 3.32289 4.35149 3.5011 4.38245C3.51143 4.38397 3.52145 4.3857 3.53109 4.38765C3.54359 4.39007 3.50554 4.45823 3.5627 4.44234C3.5834 4.4367 3.57349 4.3883 3.62368 4.3879C3.81819 4.38588 4.0256 4.44152 4.22402 4.39534C4.21679 4.44999 4.14611 4.51129 4.25235 4.47701C4.26933 4.47135 4.25665 4.42255 4.26427 4.42074C4.32597 4.40663 4.37947 4.44149 4.44625 4.42275C4.46597 4.4171 4.47087 4.37878 4.49548 4.36971C4.5318 4.3562 4.54787 4.41084 4.59005 4.38765C4.65602 4.35116 4.66621 4.29936 4.74802 4.40096C5.21164 4.39451 5.67312 4.3659 6.13518 4.41066C6.26876 4.38163 6.39202 4.34918 6.53126 4.33809C6.57227 4.33487 6.58011 4.40422 6.64553 4.38124C6.66017 4.3762 6.76468 4.30177 6.77992 4.44192C6.809 4.42982 6.82739 4.42942 6.85238 4.42196C6.83343 4.40139 6.81388 4.38059 6.79572 4.35982C6.90118 4.3822 6.9873 4.3328 7.08065 4.3094C7.14937 4.29227 7.10058 4.35237 7.14275 4.34633C7.18493 4.34048 7.20411 4.32696 7.25684 4.39895C7.29824 4.3159 7.32576 4.37414 7.40211 4.37636C7.41031 4.37656 7.45774 4.34436 7.49738 4.35079C7.52588 4.35542 7.53433 4.40721 7.5796 4.39919C7.58702 4.39798 7.68274 4.33381 7.71321 4.32796C7.76067 4.31868 7.83609 4.38508 7.84527 4.38588C7.97863 4.39757 8.03004 4.33202 8.12475 4.4399C8.14389 4.37579 8.22293 4.33827 8.28678 4.3445C8.36744 4.35236 8.52917 4.48345 8.55124 4.34493C8.64458 4.40663 8.63445 4.36855 8.74514 4.36733C8.8459 4.36612 9.11267 4.41911 9.19434 4.41146C9.27597 4.404 9.2362 4.32695 9.26861 4.31667C9.32168 4.29957 9.29302 4.35642 9.32933 4.35561C9.33517 4.35547 9.34097 4.35531 9.34673 4.35511L9.11948 4.89716C9.05025 4.8313 8.98306 4.77863 8.90156 4.72909C8.92632 4.69735 8.95096 4.66518 8.97559 4.63331C8.96254 4.63901 8.9495 4.64474 8.93646 4.65045C8.92197 4.63513 8.90481 4.61884 8.89198 4.60407C8.88256 4.84442 8.78964 4.48147 8.72463 4.40901C8.72229 4.40641 8.71977 4.40385 8.71708 4.40133C8.63486 4.33086 8.45407 4.18726 8.41114 4.03286C8.39975 3.99627 8.44705 4.01439 8.44466 4.00699C8.42273 3.93489 8.39793 3.91488 8.39521 3.83619C8.39498 3.82423 8.3955 3.8108 8.39717 3.79545C8.40366 3.73583 8.46687 3.68537 8.48221 3.63283C8.5207 3.49698 8.58952 3.36992 8.6723 3.2676L8.68147 3.25787C8.81036 3.10219 9.04024 2.97079 9.26396 2.96052C9.31771 2.95679 9.37441 2.95835 9.43194 2.96708C9.5116 2.97942 9.5562 3.06379 9.60951 3.08962C9.68644 3.12776 9.7631 3.11438 9.82793 3.16707C9.84779 3.18359 9.86483 3.20795 9.87858 3.23395C9.89394 3.27546 9.90327 3.3249 9.92465 3.33702C9.95579 3.35489 9.9589 3.26888 9.99104 3.32602C10.0058 3.35227 9.93661 3.3483 9.96078 3.3749C10.0362 3.45795 10.1882 3.53034 10.232 3.65459C10.2383 3.64107 10.2421 3.62716 10.2471 3.61324C10.3323 3.70772 10.3872 3.81129 10.4758 3.90828C10.5066 3.94227 10.5938 3.97264 10.6253 4.00494C10.6568 4.03725 10.6395 4.08297 10.664 4.10959C10.674 4.1206 10.6982 4.0886 10.7046 4.09627C10.7845 4.19247 10.7819 4.29081 10.8791 4.37818C10.9798 4.46869 11.081 4.56027 11.1826 4.65248C11.3245 4.77835 11.4349 4.99836 11.4372 5.2071C11.4505 5.41449 11.3537 5.64979 11.2151 5.79371C11.1675 5.84772 11.12 5.90168 11.0725 5.95553C11.0596 5.97019 11.0873 6.01585 11.0728 6.04154C11.0505 6.08116 11.0163 6.05061 11.0111 6.05366C10.9771 6.07388 11.0182 6.09245 10.9822 6.12908C10.9029 6.20971 10.7483 6.31349 10.6716 6.39611C10.4948 6.58658 10.3706 6.77057 10.2066 6.96646C10.1948 6.98068 10.1599 6.92884 10.137 6.95097C10.0257 7.05784 9.99496 7.12669 9.91921 7.22019C9.8619 7.28468 9.77763 7.36436 9.62769 7.42314C9.5257 7.46308 9.39247 7.48608 9.26326 7.47622C9.05753 7.46926 8.79859 7.34899 8.65616 7.18121L8.64594 7.17036C8.50156 7.00569 8.42328 6.76104 8.42742 6.57702C8.42702 6.52635 8.43094 6.47604 8.4388 6.42823C8.43894 6.42825 8.43908 6.42827 8.43922 6.42829C8.35056 6.25139 8.49583 6.01107 8.66085 5.9576C8.67059 5.95564 8.68051 5.95398 8.69055 5.95262C8.6874 5.96092 8.68419 5.96917 8.68095 5.97736C8.57541 6.16203 8.52974 6.39222 8.56701 6.57274C8.59661 6.74792 8.68186 6.91521 8.79844 7.03294C8.921 7.15417 9.09535 7.2395 9.27036 7.24603C9.44027 7.26021 9.63512 7.18636 9.75664 7.06038C9.81367 7.0047 9.87056 6.94769 9.92678 6.88861C10.3035 6.49281 10.62 5.99905 10.9836 5.56611C11.072 5.46234 11.1193 5.33621 11.1191 5.2071C11.1194 5.17473 11.1173 5.14256 11.1124 5.11083C11.1022 5.0505 11.1515 4.99992 11.1112 4.95161C11.1046 4.94439 11.0726 4.98913 11.0545 4.96734C11.0251 4.93276 10.9934 4.90137 10.9595 4.87182C10.6836 4.62858 10.4762 4.29624 10.2072 4.06221C10.125 3.99071 10.0735 4.01745 9.99638 3.95939C10.0268 3.95299 10.0541 3.9416 10.0832 3.93353C9.96194 3.75293 9.8203 3.59218 9.6719 3.43713C9.57302 3.32986 9.42117 3.2662 9.27363 3.27408C9.18409 3.27668 9.09364 3.29943 9.01318 3.34242C8.99473 3.3523 8.96383 3.30754 8.94204 3.31952C8.89786 3.34429 8.90267 3.41946 8.87812 3.44721C8.87748 3.44793 8.87684 3.44862 8.8762 3.4493C8.84484 3.48645 8.80598 3.46877 8.78086 3.51089C8.76926 3.53228 8.80733 3.54713 8.77808 3.5873C8.77586 3.59074 8.73493 3.57345 8.72577 3.60848C8.70978 3.66751 8.70343 3.76694 8.71712 3.84608C8.72442 3.89497 8.73761 3.93673 8.74693 3.96266C8.77643 4.04651 8.75851 4.14159 8.7779 4.17806C8.80961 4.2359 8.84511 4.2366 8.87748 4.24366C8.89649 4.24715 8.91569 4.25337 8.936 4.27401C9.07146 4.41162 9.19817 4.55367 9.32264 4.69746L9.34673 4.63999C8.99291 4.61755 8.64026 4.58532 8.27175 4.58572C8.23618 4.58575 8.10463 4.66049 8.03882 4.6575C8.01676 4.65629 7.90141 4.63655 7.88413 4.63491C7.81402 4.62866 7.75343 4.58348 7.71476 4.574C7.63978 4.55546 7.55598 4.62603 7.51517 4.63308C7.4435 4.64558 7.31622 4.6363 7.28612 4.63449C7.21347 4.63005 7.23747 4.54277 7.18533 4.56313C7.16992 4.56922 7.18606 4.63613 7.13178 4.63613C7.0863 4.63591 7.06791 4.58551 7.03686 4.57644C7.00582 4.56742 6.94886 4.64535 6.92951 4.6434C6.82834 4.63251 6.78357 4.58144 6.67342 4.57882C6.58196 4.57681 6.15919 4.61254 6.12404 4.63089C5.96662 4.71288 6.22879 4.67609 6.24357 4.67886C6.32344 4.69479 6.31176 4.72625 6.39143 4.66616C6.46272 4.85148 6.71115 4.56294 6.77482 4.78275C6.84064 4.63634 6.89593 4.71015 6.96526 4.73959C7.06109 4.78028 6.98812 4.69497 7.05802 4.69436C7.08558 4.69421 7.16544 4.76071 7.20683 4.75143C7.24821 4.74214 7.26565 4.69114 7.3211 4.68832C7.42009 4.68309 7.49978 4.70689 7.58297 4.76797C7.5982 4.74096 7.61241 4.71393 7.62745 4.68692C7.68486 4.71596 7.74251 4.74481 7.79992 4.77365C7.79075 4.75006 7.78155 4.72626 7.77237 4.70266C7.78917 4.69924 7.80601 4.696 7.82281 4.69278C7.87866 4.72827 7.932 4.76112 7.98942 4.79782C8.14542 4.66134 8.10015 4.77947 8.18685 4.79721C8.27354 4.81494 8.32371 4.73593 8.39068 4.7355C8.48091 4.7349 8.52234 4.72504 8.61334 4.73068C8.66607 4.73391 8.75552 4.81015 8.68209 4.68936C8.84673 4.67968 9.07213 4.64597 9.21939 4.69497C9.26286 4.70927 9.20489 4.74731 9.2123 4.75204C9.24921 4.77442 9.28029 4.71275 9.31836 4.72159C9.32685 4.72356 9.33641 4.72613 9.34673 4.72914L9.47708 4.73291L9.38621 4.63496C9.35333 4.57385 9.31112 4.47768 9.28786 4.44006C9.24926 4.3775 9.1133 4.35314 9.10105 4.34902C9.03275 4.32583 9.06796 4.26704 9.0502 4.25549C8.99337 4.21894 8.95642 4.20315 8.94783 4.1745C8.94263 4.15351 8.95542 4.12398 8.99522 4.07551C8.9365 4.1072 8.78398 4.04561 8.87568 3.98519C8.78738 4.01612 8.77531 3.91344 8.7576 3.84939C8.75914 3.84875 8.76068 3.8481 8.76223 3.84747C8.78764 3.83698 8.8132 3.82775 8.83922 3.82009C8.73385 3.73411 8.80103 3.56539 8.91706 3.48815C8.97777 3.44721 9.04412 3.42522 9.09614 3.40944C9.09956 3.40846 9.07907 3.34155 9.11022 3.34657C9.11218 3.34727 9.12043 3.37698 9.13723 3.37563C9.1631 3.373 9.22365 3.37878 9.27743 3.39744C9.3406 3.41778 9.38426 3.45371 9.39326 3.45687C9.45481 3.48014 9.4904 3.44489 9.53448 3.46966C9.56398 3.48791 9.57051 3.51021 9.57646 3.53095C9.5841 3.55215 9.59243 3.57314 9.61906 3.59575C9.64531 3.61814 9.7108 3.59761 9.74255 3.64223C9.7614 3.66859 9.72941 3.70448 9.74442 3.72528C9.79775 3.79938 9.8658 3.82541 9.87735 3.92633C10.0008 3.83424 9.94744 3.94039 9.96703 3.97673C10.0463 4.12442 10.2329 4.22223 10.3198 4.33045C10.503 4.55905 10.6541 4.78789 10.8194 5.00954C10.8648 5.08332 10.8692 5.1342 10.8653 5.19877C10.8651 5.20171 10.8655 5.20444 10.8663 5.2071C10.8744 5.23275 10.937 5.25114 10.9237 5.28694C10.9163 5.30476 10.8592 5.30021 10.8478 5.31928C10.8386 5.33486 10.843 5.37775 10.8189 5.40201C10.8185 5.4024 10.818 5.40263 10.8174 5.40271C10.8051 5.40723 10.7708 5.3767 10.7569 5.39029C10.6446 5.50014 10.5635 5.63538 10.4705 5.76627C10.436 5.81481 10.3614 5.7924 10.4539 5.8694C10.4172 5.86478 10.3836 5.86238 10.3481 5.85707C10.3453 5.96774 10.2429 5.95958 10.18 6.05115C10.1734 6.06118 10.1746 6.17821 10.0991 6.16965C10.1273 6.20198 10.1582 6.22224 10.1849 6.25034C10.1641 6.2948 10.079 6.3109 10.0535 6.32965C10.0281 6.34837 10.053 6.40219 10.0468 6.40927C10.0228 6.43575 9.97652 6.37862 9.97374 6.37972C9.80709 6.44946 9.84712 6.46422 9.8547 6.61271C9.85673 6.65004 9.67966 6.71574 9.71708 6.80103C9.69083 6.77741 9.67537 6.74885 9.65329 6.7233C9.61081 6.75357 9.56788 6.78395 9.52526 6.81436C9.55709 6.83031 9.59048 6.84472 9.62176 6.86151C9.60722 6.86986 9.5948 6.87972 9.58397 6.89065C9.5351 6.94018 9.51133 7.0239 9.44419 7.04611C9.39953 7.05914 9.3875 6.9836 9.36876 7.00448C9.36469 7.0085 9.38246 7.05677 9.36791 7.06338C9.33464 7.07802 9.30343 7.08158 9.2755 7.07932C9.20201 7.0721 9.15294 7.0333 9.0804 6.98955C9.04103 6.96449 8.95512 6.99537 8.92106 6.92082C8.91871 6.9133 8.91653 6.90378 8.91568 6.89307C8.91132 6.87941 8.93736 6.78128 8.81219 6.78437C8.83863 6.75339 8.85174 6.7335 8.87727 6.71268C8.70835 6.67637 8.81212 6.64003 8.86509 6.56358C8.87355 6.55171 8.8812 6.53875 8.88752 6.52426C8.90256 6.47798 8.92553 6.3573 8.98694 6.27815C9.00367 6.25532 9.01746 6.23544 9.02672 6.22083C9.05461 6.17632 9.00529 6.12915 9.00976 6.12071C9.03687 6.07069 9.08407 6.11703 9.11177 6.07335C9.13946 6.02965 9.13089 5.93162 9.1722 5.89938C9.20386 5.87471 9.24048 5.95469 9.26127 5.89271C9.26538 5.87969 9.19126 5.8556 9.25423 5.83057C9.26409 5.82657 9.38733 5.80883 9.41321 5.80579C9.40786 5.87366 9.34261 6.02148 9.31542 6.07445C9.26147 6.17979 9.19538 6.29173 9.11948 6.40844C9.08882 6.48064 9.10646 6.51057 9.1259 6.55557C9.14783 6.61265 9.17191 6.62611 9.21564 6.657L9.20305 6.64362C9.2523 6.67046 9.25516 6.6555 9.28873 6.6501C9.31648 6.63683 9.28146 6.64399 9.30611 6.61751C9.78188 6.09034 10.2857 5.58906 10.6529 5.24103C10.6553 5.23916 10.6574 5.23744 10.6593 5.23587C10.6739 5.22452 10.7375 5.25591 10.749 5.24349C10.7582 5.23392 10.6922 5.22602 10.6988 5.2215C10.7028 5.21868 10.7217 5.21542 10.7366 5.2071C10.7462 5.20186 10.7541 5.19607 10.7551 5.19073C10.76 5.16254 10.764 5.14128 10.7324 5.09501C10.5741 4.9085 10.4144 4.72335 10.2513 4.5452C10.1883 4.4765 10.098 4.46089 10.0385 4.40044C10.0154 4.3769 10.0639 4.32784 10.047 4.31156C9.86613 4.13531 9.65506 4.01523 9.48476 3.83048C9.45187 3.79473 9.42614 3.74938 9.40112 3.7033C9.3948 3.67309 9.3868 3.64493 9.37086 3.6335C9.34489 3.61562 9.31313 3.64847 9.28527 3.65173C9.28461 3.65179 9.28396 3.65185 9.28331 3.65189C9.26693 3.65316 9.2514 3.60273 9.2431 3.59993C9.21638 3.59138 9.24008 3.65215 9.23131 3.6545C9.2106 3.66086 9.16106 3.59826 9.13278 3.62566C9.12259 3.63651 9.15478 3.67367 9.14625 3.6916C9.14223 3.70007 9.13644 3.7007 9.12977 3.69855L9.13931 3.68842C9.12746 3.68515 9.11273 3.67303 9.10394 3.68207C9.10314 3.68277 9.13253 3.7024 9.12808 3.71038C9.10079 3.76039 9.11074 3.80811 9.11105 3.85818C9.1111 3.86164 9.11109 3.86483 9.11096 3.86781C9.11106 3.90729 9.09511 3.93292 9.12704 3.99834C9.19135 4.08939 9.25435 4.17913 9.32371 4.25852C9.36153 4.30159 9.38368 4.25851 9.39799 4.26991C9.46678 4.32495 9.44946 4.3858 9.52775 4.43726C9.53338 4.44098 9.55315 4.44293 9.57615 4.44825L10.1041 5.0174L9.34673 4.99548C9.32065 5.01208 9.28654 5.02859 9.25333 5.01945C9.2217 5.01076 9.18579 4.97104 9.15884 4.96177C9.1319 4.95249 9.12758 5.01098 9.09519 5.01102C9.03621 5.01122 9.05336 4.97069 8.969 4.97794C8.93503 4.98076 8.82157 5.03618 8.73408 5.03196C8.59112 5.0251 8.41395 4.97448 8.24541 4.97367C8.1876 4.97327 8.11335 5.03337 8.0237 5.03397C7.91414 5.03478 7.71227 5.02111 7.59998 5.0203C7.54257 5.0199 7.53841 4.95694 7.53158 4.95432C7.48767 4.93681 7.5054 5.00715 7.47596 5.00437C7.43553 5.00054 7.3978 4.94865 7.36109 4.94523C7.33767 4.94303 7.33395 4.99487 7.32887 4.99528C7.141 5.01242 6.975 5.00757 6.78829 5.01322C5.78701 5.04307 4.77614 5.10961 3.77681 5.07957C3.69303 5.07715 3.68987 5.01179 3.61625 5.02207C3.57673 5.02748 3.53793 5.07066 3.5011 5.08539C3.48907 5.09822 3.48436 5.09005 3.46356 5.0201C3.46769 5.0513 3.47124 5.07344 3.47534 5.10179C3.44638 5.07555 3.43897 5.09356 3.42802 5.12247C3.4232 5.13496 3.42306 5.14415 3.42158 5.14989C3.41929 5.16255 3.41067 5.17116 3.40674 5.2071C3.40649 5.20973 3.40628 5.21224 3.40612 5.21468C3.40414 5.24046 3.35231 5.2546 3.42469 5.24863C3.41947 5.26103 3.41641 5.27179 3.42779 5.29197C3.44958 5.32374 3.44488 5.3327 3.5011 5.34535C3.6724 5.35707 3.84324 5.37329 4.01263 5.40605C4.10286 5.28889 4.18935 5.36271 4.31415 5.38005C4.32955 5.38225 4.31302 5.3395 4.35871 5.34312C4.4161 5.34759 4.44579 5.4129 4.54242 5.40929C4.568 5.40828 4.75749 5.33587 4.8276 5.37297C4.89772 5.41007 4.99927 5.43185 5.07211 5.46733C5.06176 5.43931 5.04866 5.4125 5.03713 5.38487C5.07346 5.38003 5.10998 5.37537 5.1463 5.37053C5.15158 5.40421 5.15686 5.43791 5.16194 5.47179C5.18303 5.43973 5.20413 5.40806 5.22542 5.3756C5.27131 5.5486 5.22426 5.49217 5.32638 5.44841C5.37755 5.42663 5.41817 5.45686 5.4707 5.43932C5.48963 5.43287 5.50174 5.38193 5.52261 5.37541C5.57377 5.35969 5.54395 5.4298 5.57555 5.42943C5.60739 5.42883 5.65309 5.35181 5.71011 5.3861C5.65058 5.52339 5.82266 5.4786 5.83086 5.37193C5.85134 5.37174 5.86851 5.37617 5.89114 5.37316C5.87025 5.64257 5.97752 5.45138 6.02009 5.41448C6.06264 5.37763 6.06092 5.45002 6.07088 5.44719C6.09956 5.43932 6.07867 5.40927 6.09877 5.40825C6.23197 5.4022 6.35737 5.44639 6.48881 5.45043C6.50772 5.451 6.49095 5.41009 6.51299 5.41411C6.53506 5.41814 6.55621 5.45887 6.58883 5.45604C6.59758 5.45533 6.60033 5.41939 6.61396 5.41936C6.89968 5.42097 7.17097 5.45159 7.46235 5.45623C7.48872 5.45663 7.50942 5.39274 7.56038 5.39495C7.61134 5.39716 7.68868 5.45482 7.75195 5.45928C7.76874 5.46049 7.7733 5.40727 7.79556 5.40868C7.87132 5.41353 7.93659 5.45686 8.01528 5.46392C8.14826 5.4758 8.28749 5.44334 8.42242 5.47478C8.448 5.48063 8.44391 5.52502 8.48081 5.53753C8.54447 5.5591 8.52052 5.49438 8.53341 5.48571C8.57557 5.4577 8.58883 5.54372 8.62962 5.5216C8.63586 5.51818 8.62696 5.46716 8.63256 5.46636C8.71927 5.45749 8.72382 5.57706 8.816 5.51293C8.89798 5.58168 8.76105 5.6051 8.74699 5.6416C8.71265 5.73031 8.80343 5.83456 8.85694 5.86804C8.90302 5.89687 8.90268 5.84164 8.92103 5.84161C9.01808 5.84141 9.16261 5.83091 9.23644 5.85712C9.28117 5.87285 9.20055 5.89585 9.2234 5.914C9.24605 5.93213 9.26071 5.89062 9.28395 5.93598C9.30719 5.98135 9.3546 6.11487 9.34561 6.1786ZM4.13981 4.53286C4.01532 4.71505 3.71877 4.7289 3.5011 4.7164C3.46136 4.71393 3.42433 4.71456 3.39189 4.71779C3.23688 4.72123 2.99607 4.74647 3.1973 4.88659C3.28368 4.80316 3.37662 4.75339 3.5011 4.74916C3.54483 4.7481 3.59012 4.74807 3.6381 4.74985C3.659 4.75065 3.78363 4.77322 3.82699 4.77725C3.85139 4.77948 3.85218 4.81965 3.88537 4.81925C3.8926 4.81904 3.93265 4.76656 3.9473 4.76797C3.99748 4.77262 4.1467 4.85319 4.16754 4.85086C4.22532 4.84401 4.20314 4.78157 4.22808 4.77023C4.31186 4.73272 4.3211 4.8265 4.4041 4.79605C4.41894 4.79061 4.46816 4.70888 4.52968 4.71957C4.55468 4.72402 4.59726 4.76621 4.61639 4.76419C4.72068 4.7533 4.83709 4.69742 4.93259 4.70669C5.01087 4.71437 4.98982 4.77745 5.03122 4.78592C5.07262 4.79416 5.12261 4.721 5.15093 4.71676C5.19623 4.71013 5.2513 4.75167 5.26536 4.75107C5.54229 4.73877 5.78856 4.69059 6.05572 4.67324C5.87429 4.64441 5.69307 4.61794 5.51281 4.5881C5.41048 4.65343 5.46142 4.59217 5.39405 4.5718C5.34074 4.55567 5.32785 4.66634 5.25776 4.65408C5.25782 4.65408 5.25788 4.65408 5.25794 4.65408C5.22181 4.64763 5.14349 4.57099 5.06654 4.60305C5.06381 4.60427 5.05696 4.66171 4.99935 4.66372C4.86988 4.66816 4.67148 4.69762 4.52579 4.68533C4.48302 4.6817 4.49173 4.62138 4.44115 4.61392C4.40426 4.60852 4.36151 4.66429 4.30374 4.65182C4.23128 4.63589 4.19652 4.53995 4.14672 4.67324C4.14262 4.62565 4.1447 4.57924 4.13981 4.53286ZM5.19398 5.76538C5.20416 5.77065 5.34045 5.91943 5.30004 5.76056C5.11685 5.69159 4.91879 5.72585 4.72604 5.68713C4.79185 5.84422 4.9032 5.7823 5.03834 5.77081C5.0384 5.77081 5.03846 5.77081 5.03852 5.77081C5.0449 5.77028 5.01822 5.81133 5.05449 5.80389C5.07207 5.80026 5.13949 5.73735 5.19398 5.76538ZM6.20857 3.07119C6.15534 2.72476 6.13259 2.37878 6.15577 2.02242C6.16102 1.94122 6.20216 1.94888 6.20881 1.91549C6.2211 1.85414 6.17671 1.75118 6.17671 1.73674C6.17614 1.64716 6.24816 1.68217 6.25093 1.67011C6.27782 1.54649 6.2106 1.56929 6.1935 1.47377L6.64673 1.92701C6.63839 1.9285 6.62915 1.92961 6.61883 1.93024C6.45148 1.94053 6.23674 1.92585 6.0351 1.92182C5.96429 1.92021 5.99581 1.86538 5.84298 1.87C5.73472 1.87323 5.4026 1.93571 5.24967 1.86896C5.24877 1.84376 5.26809 1.81593 5.27621 1.78992C5.05699 1.89497 4.97853 1.89036 4.66774 1.86475C4.61856 1.86072 4.57201 1.90387 4.48539 1.88794C4.39882 1.872 4.39516 1.80547 4.22106 1.80628C4.15931 1.80672 4.12184 1.85364 4.02715 1.85566C3.75783 1.8615 3.24491 1.80323 3.02387 1.80121C2.58856 1.79718 2.35171 1.87725 1.96513 1.84943C1.93535 1.84741 2.00075 1.796 1.94618 1.79498C1.89114 1.79398 1.83382 1.8621 1.82029 1.86371C1.7169 1.87612 1.53208 1.83407 1.40401 1.81231L1.74256 1.47377C1.73356 1.52672 1.72804 1.56997 1.73127 1.59374C1.75829 1.79133 1.78831 1.59662 1.80122 1.87045C1.8135 2.13119 1.72481 2.49118 1.70746 2.74964C1.68731 3.04915 1.81615 3.14573 1.68165 3.37128C1.68951 4.1634 1.69432 4.95867 1.70118 5.75169C1.67437 5.74944 1.64754 5.74682 1.62073 5.74411C1.63928 5.80682 1.65786 5.86954 1.67621 5.93224C1.65626 5.92277 1.63628 5.91378 1.61652 5.90431C1.69353 6.19883 1.73326 6.46133 1.7121 6.80545C1.7117 6.81218 1.65824 6.79449 1.65686 6.80006C1.64678 6.87765 1.68791 6.96436 1.67823 7.03248C1.65504 7.19713 1.53847 7.47682 1.68104 7.35367C1.6516 7.73754 1.6998 8.18862 1.67218 8.55445C1.66029 8.71276 1.5758 8.76019 1.57092 8.83594C1.56609 8.91164 1.63869 8.87311 1.64148 8.89998C1.64277 8.91286 1.64393 8.9264 1.64495 8.94044L1.40401 8.6995C1.56593 8.68781 1.79305 8.69631 1.81881 8.77108C1.85128 8.73863 1.88564 8.70578 1.91856 8.67312C1.89927 8.76321 2.3983 8.72597 2.52923 8.72817C2.55314 8.72858 2.55647 8.76807 2.57451 8.76767C2.77562 8.76261 2.82479 8.70071 2.99705 8.68014C3.0575 8.67288 2.96376 8.74247 3.11895 8.71243C3.13247 8.70979 3.12528 8.64726 3.31066 8.64767C3.60659 8.64827 4.1727 8.62347 4.52501 8.65432C4.55388 8.65674 4.46599 8.7249 4.59803 8.70901C4.64585 8.70336 4.62294 8.65497 4.73887 8.65456C5.18818 8.65255 5.66726 8.70819 6.12559 8.66201C6.10888 8.71666 5.94563 8.77796 6.19103 8.74368C6.23024 8.73802 6.20097 8.68922 6.21856 8.6874C6.36108 8.6733 6.48465 8.70816 6.6389 8.68942C6.64163 8.68908 6.64423 8.68862 6.64673 8.68806L6.39436 8.94044C6.38558 8.90119 6.3512 8.88799 6.34267 8.83455C6.32916 8.75066 6.3838 8.71354 6.36061 8.6161C6.32412 8.46371 6.27232 8.44018 6.37392 8.25122C6.37209 7.94727 6.36847 7.64373 6.36525 7.34044C6.35852 7.14441 6.44336 6.9072 6.59389 6.76032C6.73421 6.60739 6.97243 6.5139 7.171 6.51947C7.3696 6.51329 7.60844 6.60636 7.74907 6.75939C7.90004 6.90641 7.98477 7.14449 7.97688 7.34044C7.97302 7.54806 7.96709 7.75568 7.95838 7.96335C7.98742 8.2719 8.01986 8.55663 8.03095 8.87825C8.03179 8.90295 8.0277 8.92244 8.0216 8.94044C8.00298 9.00542 7.97213 9.05021 7.96612 9.19231C7.97535 9.23131 7.93819 9.5716 7.78406 9.5415C7.75586 9.62029 7.72702 9.6648 7.69092 9.72622C7.73965 9.69554 7.78867 9.65894 7.83386 9.62153C7.7594 9.73283 7.68662 9.8281 7.61293 9.91561C7.51114 10.0361 7.39631 10.1519 7.24604 10.2391C7.05111 10.3412 7.17253 10.2267 7.0511 10.2756C6.92946 10.3167 6.8644 10.3435 6.7076 10.2807C6.68694 10.2965 6.66685 10.3072 6.64673 10.3141C6.5739 10.3459 6.50512 10.3063 6.36043 10.3045C6.34149 10.3043 6.23195 10.3365 6.14039 10.3301C6.07455 10.3255 6.05503 10.2737 5.95046 10.2817C5.93332 10.2829 5.71222 10.3471 5.64184 10.3529C5.53222 10.3622 5.35801 10.2958 5.33681 10.295C5.02875 10.2833 4.91 10.3489 4.69123 10.241C4.64702 10.3051 4.46446 10.3426 4.31697 10.3364C4.13066 10.3285 3.75709 10.1974 3.70611 10.3359C3.4905 10.2742 3.51391 10.3123 3.25823 10.3135C3.02548 10.3148 2.40927 10.2618 2.22064 10.2694C2.03208 10.2769 2.12395 10.3539 2.04907 10.3642C1.9265 10.3813 1.99271 10.3245 1.90882 10.3253C1.73025 10.3271 1.56927 10.3337 1.40401 10.3474C1.33415 10.3519 1.26189 10.3525 1.18655 10.3474C1.17628 10.3055 1.16628 10.2631 1.15838 10.221C1.14174 10.2314 1.12466 10.2415 1.10715 10.2512C1.04648 10.2373 0.978891 10.2172 0.925314 10.1947C1.29362 10.4569 0.665329 10.2058 0.468406 9.88553C0.42294 9.82699 0.38604 9.77263 0.358285 9.73454C0.218483 9.56743 0.012872 9.21361 0.00280756 8.94044C0.00175425 8.9307 0.000818312 8.92116 1.33812e-05 8.91183C-0.00440133 8.86136 0.0387269 8.89605 0.0377342 8.8857C0.0254331 8.7639 -0.00401974 8.74541 1.33812e-05 8.58166C0.00223389 8.49506 0.056242 8.40666 0.057266 8.32231C0.0645254 7.70295 0.010259 7.10521 0.00440806 6.48992C0.00339988 6.38527 0.0693308 6.29499 0.0707552 6.20703C0.0727713 6.0812 0.0187892 6.00179 0.0179583 5.88364C0.0171517 5.76591 0.0816649 5.59622 0.0717928 5.51636C0.0621133 5.43652 -0.000403345 5.57315 0.0167375 5.42699C0.0246147 5.35986 0.0711698 5.47843 0.0725863 5.39547C0.0770225 5.13654 0.0193661 4.77115 0.0752108 4.49553C0.0613007 4.50771 0.0487819 4.52433 0.0354758 4.53922C0.0409218 4.24555 0.0743996 3.98611 0.0792393 3.68297C0.0810384 3.57696 0.0401669 3.38578 0.0403588 3.28158C0.0405604 3.17739 0.0849079 3.12999 0.0861365 3.04657C0.0867414 3.01228 0.0469986 3.02569 0.0478053 3.00268C0.0583006 2.71493 0.129046 2.55704 0.120989 2.25576C0.114081 1.99677 0.107394 1.73588 0.100862 1.47377C0.0865566 1.14032 0.227431 0.770835 0.46742 0.527711C0.691812 0.278554 1.05909 0.110996 1.40401 0.112714C1.71063 0.105541 2.01701 0.0983847 2.32211 0.09114C2.36719 0.0900864 2.39752 0.038312 2.46336 0.0306525C2.56476 0.0187962 2.56973 0.0645632 2.58325 0.0661759C2.67164 0.076248 2.63559 0.0338874 2.75422 0.0338874C3.01542 0.0338877 3.43677 0.0714166 3.69706 0.0681901C4.29703 0.0607287 4.80136 0.0203795 5.3896 1.19209e-05C5.43201 -0.00160131 5.40325 0.0596929 5.47678 0.0604995C5.96614 0.0665849 6.09123 0.0145989 6.64673 0.0227046C6.6901 0.0231868 6.73594 0.0256429 6.78427 0.0309573C7.04798 0.0527286 7.40633 0.200487 7.64595 0.466149C7.88734 0.707961 8.05322 1.11301 8.03612 1.47377C8.02675 1.85615 8.01883 2.2306 8.01545 2.53158C8.01531 2.53158 8.01516 2.53158 8.01502 2.53158C8.09191 2.69287 8.10365 2.88631 8.07649 3.07377C8.06474 3.21188 8.01051 3.36008 7.92367 3.46778C7.97399 3.33312 7.98347 3.19352 7.96937 3.07377C7.88374 2.53742 7.84797 2.0078 7.83561 1.47377C7.83462 1.16578 7.7054 0.845472 7.48448 0.624876C7.27903 0.403877 6.96196 0.257408 6.64673 0.25949C6.34136 0.255138 6.03119 0.251874 5.71439 0.254109C4.31612 0.263835 2.83973 0.410671 1.40401 0.438951C1.14881 0.441225 0.904524 0.540858 0.720788 0.711859C0.708643 0.722901 0.697035 0.732928 0.685695 0.742277C0.593963 0.81982 0.51326 0.842751 0.46337 0.9548C0.454915 0.975465 0.525017 0.949247 0.498531 1.01057C0.437508 1.15684 0.410593 1.3144 0.413444 1.47377C0.425684 2.27148 0.352682 3.09521 0.378686 3.86432C0.387156 4.11513 0.442616 4.15445 0.456936 4.37503C0.430728 4.33625 0.403325 4.3109 0.376916 4.27708C0.295043 5.28396 0.331543 6.29228 0.319847 7.31225C0.319229 7.35825 0.264977 7.36414 0.26296 7.4124C0.258735 7.50892 0.318424 7.60137 0.320457 7.68571C0.323079 7.79578 0.279913 7.81483 0.282736 7.91633C0.284181 7.96587 0.325664 7.95106 0.318626 8.05877C0.318021 8.06779 0.274498 8.07369 0.280112 8.14536C0.295638 8.34157 0.332147 8.74261 0.343041 8.90505C0.343841 8.91698 0.344378 8.92878 0.344679 8.94044C0.348076 9.13027 0.341464 9.29699 0.368771 9.37354C0.45483 9.58539 0.516378 9.54305 0.632121 9.67935C0.639477 9.68723 0.646868 9.69495 0.654437 9.70266C0.848153 9.90608 1.12382 10.028 1.40401 10.0295C2.37889 10.05 3.33938 10.0956 4.35168 10.0952C4.43384 10.0951 4.73771 10.0204 4.88973 10.0234C4.94068 10.0246 5.20712 10.0443 5.24703 10.046C5.40898 10.0522 5.54893 10.0974 5.63825 10.1069C5.81146 10.1254 6.00501 10.0548 6.09929 10.0478C6.26483 10.0353 6.55883 10.0446 6.62836 10.0464C6.6348 10.0466 6.64092 10.0469 6.64673 10.0473C6.79654 10.0524 6.75786 10.135 6.88156 10.0951C6.91823 10.0799 6.86737 10.0282 6.99127 9.99051C7.09319 9.95497 7.15521 9.97775 7.22833 9.94515C7.30427 9.91172 7.36232 9.76098 7.3932 9.73078C7.3988 9.72576 7.40431 9.72079 7.40974 9.71587C7.56849 9.5624 7.68175 9.48752 7.7572 9.22657C7.77103 9.17236 7.78936 9.06723 7.78578 8.94044C7.77588 8.57317 7.75204 7.99905 7.73816 7.93762C7.65617 7.574 7.69295 8.17958 7.69018 8.21372C7.67425 8.39822 7.64279 8.37123 7.70288 8.55527C7.62111 8.62792 7.6316 8.78026 7.64997 8.94044C7.67986 9.13356 7.6333 9.36647 7.48692 9.3741C7.53893 9.52184 7.45334 9.60682 7.35723 9.66425C7.32869 9.68168 7.29857 9.69777 7.26833 9.71481C7.07957 9.80776 7.25917 9.78504 7.12532 9.86859C7.06899 9.90389 6.88302 9.90136 6.79942 9.91835C6.74051 9.93319 6.70513 9.9614 6.64673 9.97841C6.61938 9.98602 6.58781 9.99167 6.54756 9.99255C6.3189 9.99779 6.13482 9.97399 5.94268 9.9129C5.90751 9.93991 5.87467 9.96694 5.83994 9.99396C5.70732 9.96492 5.57417 9.93606 5.44154 9.90722C5.46275 9.93082 5.48398 9.95462 5.50518 9.97821C5.46639 9.98164 5.42747 9.98487 5.38868 9.9881C5.25967 9.95261 5.13646 9.91975 5.00384 9.88305C4.64349 10.0195 4.74807 9.90141 4.54779 9.88366C4.34756 9.86594 4.23166 9.94495 4.07697 9.94537C3.86857 9.94598 3.77286 9.95584 3.56267 9.95019C3.44087 9.94697 3.23426 9.87073 3.40386 9.99152C3.02358 10.0012 2.50292 10.0349 2.16278 9.9859C2.06235 9.9716 2.19627 9.93356 2.17914 9.92883C2.0939 9.90645 2.0221 9.96813 1.93416 9.95929C1.79427 9.9452 1.52751 9.9006 1.40401 9.8869C1.39902 9.88629 1.39432 9.8857 1.38992 9.88516C1.24586 9.87678 1.00264 9.87157 0.974581 9.85825C0.831986 9.8204 0.842232 9.73556 0.805698 9.71355C0.769451 9.68954 0.738687 9.66672 0.712539 9.64554C0.588482 9.54197 0.561561 9.48577 0.631592 9.37741C0.54354 9.37047 0.360021 9.11497 0.466232 9.03512C0.428255 9.03805 0.404332 8.99944 0.392743 8.94044C0.376479 8.85534 0.376188 8.73513 0.362756 8.6471C0.389374 8.61912 0.415833 8.59068 0.442653 8.56271C0.278107 8.24829 0.397633 7.62218 0.417201 7.20851C0.417604 7.19813 0.348693 7.17959 0.364221 7.11734C0.365494 7.11339 0.396461 7.1198 0.400476 7.07804C0.413389 6.94044 0.490744 6.41546 0.491421 6.35506C0.494043 6.13266 0.44261 6.09379 0.43777 5.95845C0.431318 5.78029 0.477734 5.75454 0.471096 5.58499C0.468072 5.50562 0.406979 5.43339 0.415614 5.30849C0.420653 5.23454 0.468631 5.22721 0.4725 5.16864C0.486414 4.96023 0.456136 4.80716 0.518644 4.62221C0.366024 4.57394 0.478516 4.48555 0.490018 4.39398C0.537002 4.02228 0.472509 3.55902 0.486416 3.24008C0.513502 2.62413 0.559884 2.05136 0.59632 1.47377C0.613384 1.24895 0.704328 1.06807 0.865341 0.918871C0.91179 0.875602 0.96043 0.838374 1.01128 0.807804C1.1069 0.754903 1.10276 0.671635 1.23145 0.645536C1.28042 0.63774 1.33459 0.670431 1.40401 0.683214C1.42122 0.685659 1.43938 0.68716 1.45868 0.687287C1.55654 0.688083 1.69677 0.659877 1.81898 0.660065C1.85146 0.660065 1.85435 0.712092 1.90217 0.712496C2.26483 0.715513 2.61897 0.678574 2.98524 0.653168C3.12099 0.643714 3.20495 0.712649 3.18195 0.59268C3.23382 0.622119 3.28426 0.647753 3.33297 0.676789C3.51973 0.601168 3.67226 0.679973 3.92488 0.660614C3.95212 0.658308 4.14286 0.575364 4.25106 0.635223C4.25872 0.592483 4.24193 0.556191 4.24508 0.517483C4.35197 0.501151 4.51622 0.550515 4.58842 0.55557C4.6605 0.560605 4.70877 0.505086 4.73046 0.504543C4.81301 0.503131 4.79377 0.57615 4.80008 0.57736C5.18483 0.647321 5.14432 0.608422 5.37663 0.498927C5.43483 0.471308 5.8298 0.551525 5.90969 0.465052C5.91329 0.500326 5.89128 0.531369 5.88496 0.56503C6.0036 0.574105 6.12316 0.583422 6.24226 0.592497C6.217 0.558619 6.18666 0.524707 6.16366 0.490626C6.34171 0.512187 6.4978 0.475136 6.64673 0.454783C6.69899 0.447342 6.75134 0.445737 6.80213 0.453873C6.91114 0.474245 6.87791 0.546377 6.9399 0.547321C6.9523 0.548061 6.94823 0.493096 6.98472 0.501465C7.17046 0.548939 7.26773 0.644775 7.35472 0.752427C7.40735 0.819595 7.45724 0.894713 7.50814 0.993995C7.56616 1.11126 7.70257 1.21674 7.65253 1.4322C7.65132 1.43676 7.64615 1.45194 7.63984 1.47377C7.61985 1.54586 7.59405 1.69002 7.68292 1.78805C7.64602 1.8291 7.62663 1.8653 7.59558 1.89598C7.7692 2.15717 7.59904 2.085 7.55871 2.43822C7.54573 2.55146 7.55246 2.83052 7.56388 3.07377C7.57272 3.19518 7.5318 3.29092 7.49858 3.34217C7.48835 3.35877 7.48119 3.37341 7.47648 3.38687C7.45776 3.43816 7.48074 3.47313 7.46988 3.48475C7.37656 3.56584 7.34753 3.50297 7.25384 3.5349C7.22868 3.54174 7.20122 3.55089 7.171 3.55947C7.08453 3.58663 6.96452 3.59868 6.88722 3.54287C6.81928 3.48962 6.90294 3.46832 6.83372 3.41812C6.82738 3.413 6.81983 3.40743 6.81088 3.40101C6.79015 3.38334 6.78204 3.49473 6.7201 3.35974C6.69684 3.33549 6.71101 3.10874 6.73996 3.07377C6.76549 3.1489 6.83398 3.27456 6.92866 3.3248C6.97256 3.35209 7.01017 3.36237 7.03403 3.36726C7.07654 3.37589 7.12031 3.37504 7.171 3.36554C7.25633 3.34848 7.29905 3.31378 7.3405 3.25319C7.37851 3.19329 7.38196 3.15072 7.37204 3.07377C7.33252 2.58342 7.30109 2.04228 7.27638 1.47377C7.26315 1.28955 7.19942 1.16031 7.06633 1.03592C6.93452 0.916893 6.81507 0.874861 6.64673 0.8792C4.85218 0.918949 3.01061 0.910206 1.75135 0.890113C1.61167 0.88797 1.50211 0.85929 1.40401 0.836462C1.36605 0.822665 1.3302 0.813767 1.29643 0.816586C1.20909 0.827261 1.29307 0.87562 1.22298 0.889154C1.15665 0.90513 1.08686 0.889805 1.02104 0.935204C0.995329 0.953323 0.969939 0.973925 0.944893 0.997072C0.80467 1.12743 0.732335 1.27479 0.723078 1.47377C0.707311 1.98354 0.693549 2.49284 0.685824 2.99729C0.682597 3.21247 0.736057 3.38445 0.736057 3.58023C0.736025 3.65642 0.667091 3.65878 0.667696 3.7129C0.673147 4.29615 0.739484 4.83571 0.731418 5.41582C0.727981 5.65669 0.669908 5.91694 0.664461 6.15556C0.659824 6.35221 0.69953 6.55609 0.700351 6.73291C0.700955 6.82889 0.648453 6.87952 0.644319 6.91425C0.630606 7.03515 0.694735 6.9929 0.694735 7.0547C0.694519 7.22518 0.617093 7.30998 0.623139 7.46965C0.625558 7.53233 0.674898 7.52427 0.682589 7.61529C0.692266 7.73074 0.646749 7.68804 0.645112 7.7705C0.644911 7.77546 0.68019 7.75929 0.681612 7.80302C0.690889 8.08451 0.718701 8.43597 0.716281 8.70754C0.715611 8.78533 0.713729 8.86299 0.710949 8.94044C0.700728 9.14253 0.746986 9.31705 0.880576 9.48036C0.973633 9.59433 1.08505 9.67422 1.21491 9.71062C1.30861 9.73392 1.29061 9.68108 1.3198 9.68315C1.35117 9.68408 1.37848 9.68598 1.40401 9.68855C1.52706 9.69759 1.60727 9.72761 1.77217 9.71221C1.80737 9.70897 1.94906 9.6453 2.08438 9.66143C2.15744 9.67011 2.24039 9.70983 2.30263 9.71911C2.36486 9.72838 2.37485 9.66989 2.44966 9.66985C2.58589 9.66965 2.54628 9.71019 2.74113 9.70293C2.81961 9.70011 3.08168 9.6447 3.28377 9.64892C3.61398 9.65577 4.02322 9.7064 4.41253 9.70721C4.54606 9.70761 4.71758 9.64751 4.92464 9.6469C5.17771 9.6461 5.64401 9.65977 5.90338 9.66057C6.03601 9.66098 6.0456 9.72393 6.06139 9.72655C6.1628 9.74407 6.12185 9.67373 6.18986 9.6765C6.28324 9.68034 6.37039 9.73222 6.4552 9.73565C6.5093 9.73784 6.51788 9.686 6.52961 9.6856C6.56904 9.68404 6.60806 9.68267 6.64673 9.68145C6.85381 9.67126 7.00454 9.60305 7.14712 9.45771C7.19779 9.4053 7.23988 9.34902 7.27185 9.28786C7.32635 9.18374 7.35102 9.06921 7.34838 8.94044C7.34041 8.40788 7.33103 7.87435 7.32188 7.34044C7.31698 7.27483 7.30656 7.26127 7.27318 7.22719C7.23581 7.1967 7.2285 7.19518 7.171 7.19442C7.11323 7.19966 7.11012 7.20532 7.0782 7.23641C7.05025 7.27164 7.04715 7.28028 7.04622 7.34044C7.05315 7.87421 7.05818 8.40774 7.05968 8.94044L7.05163 9.36113L6.64673 9.35338C6.12771 9.35485 5.60948 9.35296 5.09259 9.34623C4.89906 9.34381 4.89178 9.27845 4.72172 9.28874C4.55165 9.29882 4.38735 9.43998 4.24751 9.2841C4.243 9.31556 4.24344 9.33799 4.23893 9.36662C3.88753 9.32227 3.53609 9.36818 3.19236 9.37382C2.93797 9.37806 2.71236 9.37304 2.47736 9.36961C2.26905 9.36637 2.28704 9.31156 2.10669 9.3831C1.87296 9.37143 1.63857 9.36354 1.40401 9.35694L0.979705 9.34882L0.987514 8.94044C1.00623 8.27545 1.01462 7.60904 1.06963 6.95208C0.952466 6.74366 1.02628 6.54389 1.04363 6.25563C1.04582 6.22004 1.00307 6.25822 1.0067 6.15269C1.01116 6.02014 1.07648 5.95154 1.07286 5.72835C1.07186 5.66926 0.999442 5.23156 1.03655 5.06961C1.07365 4.90766 1.09542 4.67308 1.13091 4.50483C1.10288 4.52873 1.07607 4.55901 1.04845 4.58563C1.04361 4.50172 1.03894 4.41736 1.03411 4.33346C1.06778 4.32128 1.10149 4.30908 1.13537 4.29735C1.1033 4.24863 1.07164 4.19989 1.03917 4.15072C1.21217 4.04472 1.15575 4.15339 1.11199 3.9175C1.09021 3.79931 1.12044 3.70549 1.10289 3.58414C1.09645 3.54042 1.0455 3.51245 1.03899 3.46424C1.02326 3.34608 1.09338 3.41495 1.09301 3.34195C1.0924 3.26842 1.01539 3.16286 1.04967 3.03113C1.18697 3.16865 1.14218 2.77118 1.03551 2.75223C1.03531 2.70492 1.03975 2.66525 1.03673 2.61298C1.30614 2.66125 1.11496 2.41347 1.07805 2.31513C1.0412 2.21685 1.11359 2.22083 1.11077 2.19783C1.1029 2.13156 1.07284 2.17982 1.07183 2.13339C1.0674 1.90805 1.08992 1.69235 1.10387 1.47377L1.10972 1.168L1.40401 1.17363C1.48386 1.17873 1.5641 1.18268 1.64533 1.18376C1.689 1.18434 1.65027 1.14343 1.70119 1.14744C1.75217 1.15148 1.80101 1.1922 1.87635 1.18938C1.89657 1.18866 1.90291 1.15273 1.9344 1.15269C2.59438 1.15431 3.22102 1.18492 3.89408 1.18956C3.95498 1.18996 4.00279 1.12607 4.12051 1.12828C4.23823 1.1305 4.41685 1.18816 4.563 1.19261C4.6018 1.19382 4.61232 1.1406 4.66375 1.14201C4.83875 1.14686 4.9895 1.19019 5.17127 1.19725C5.47843 1.20914 5.80004 1.17667 6.11171 1.20812C6.17079 1.21396 6.16135 1.25835 6.24657 1.27086C6.39363 1.29244 6.33829 1.22771 6.36806 1.21904C6.46547 1.19103 6.49608 1.27706 6.5903 1.25493C6.60471 1.25151 6.58416 1.20049 6.59709 1.19969C6.61507 1.1989 6.63152 1.19913 6.64673 1.20018L6.92545 1.20551L6.92032 1.47377C6.90969 1.62794 6.81587 1.65405 6.87424 1.84786C6.80549 2.03721 6.78207 1.72094 6.74557 1.68846C6.65686 1.60914 6.55261 1.81883 6.51913 1.94243C6.4903 2.04886 6.54553 2.04808 6.54555 2.09045C6.54576 2.31464 6.55626 2.64849 6.53005 2.81902C6.51432 2.92233 6.49131 2.73612 6.47316 2.7889C6.45504 2.84121 6.49655 2.87508 6.45119 2.92875C6.40582 2.98243 6.27229 3.09194 6.20857 3.07119ZM5.93108 8.79953C5.58733 9.01731 4.67572 8.99456 4.18626 8.97379C3.78027 8.95644 3.43025 8.78864 3.51415 9.03183C3.95304 9.03344 4.30804 9.00905 4.77219 9.01651C4.82046 9.01732 5.10835 9.03989 5.2085 9.04392C5.26487 9.04614 5.26668 9.08632 5.34336 9.08591C5.36005 9.08571 5.45256 9.03323 5.4864 9.03464C5.6023 9.03929 5.94699 9.11985 5.99512 9.11753C6.12858 9.11068 6.07736 9.04824 6.13497 9.0369C6.32849 8.99939 6.34982 9.09317 6.54154 9.06272C6.55875 9.05999 6.59596 9.03804 6.64673 9.0182L6.72298 9.01966L6.72449 8.94044C6.70481 8.89006 6.68721 8.82633 6.69253 8.75555C6.69698 8.69781 6.73917 8.59946 6.73715 8.55525C6.72626 8.31437 6.67038 8.04547 6.67965 7.82489C6.68733 7.64406 6.75041 7.69269 6.75888 7.59706C6.76634 7.5105 6.70709 7.40766 6.69266 7.34044C6.69114 7.33383 6.69023 7.32766 6.69 7.32183C6.68345 7.21882 6.76855 7.12643 6.78236 7.10647C6.80077 7.07261 6.82371 7.04122 6.85033 7.01241C6.93317 6.92091 7.04653 6.87098 7.171 6.86584C7.2981 6.85811 7.42259 6.89883 7.51752 6.98701C7.61585 7.07392 7.67378 7.20281 7.67882 7.34044C7.68565 7.4852 7.69162 7.63111 7.6958 7.77981C7.70588 7.63327 7.71568 7.48679 7.72543 7.34044C7.73716 7.19488 7.68985 7.03511 7.58609 6.9196C7.49277 6.80808 7.34388 6.73352 7.19435 6.72181C7.18609 6.72352 7.1784 6.72528 7.171 6.72703C6.94402 6.80492 7.05654 6.72555 6.87906 6.77363C6.7987 6.80654 6.78027 6.86621 6.76031 6.92392C6.74541 6.96873 6.72807 7.01351 6.68944 7.07418C6.6895 7.07406 6.68957 7.07394 6.68963 7.07382C6.65884 7.12039 6.58623 7.21305 6.57355 7.34044C6.56671 7.39665 6.56533 7.45623 6.57601 7.51547C6.57723 7.52178 6.63467 7.53761 6.63668 7.67068C6.64112 7.96974 6.67058 8.42801 6.65829 8.76453C6.65488 8.8574 6.60137 8.84519 6.58877 8.94044L6.64673 8.88247C6.64065 8.88167 6.63414 8.88103 6.62713 8.88058C6.5419 8.87519 6.44317 8.93096 6.30973 8.91849C6.14236 8.90256 6.06207 8.80662 5.94704 8.93991C5.93757 8.89232 5.94236 8.84591 5.93108 8.79953ZM1.42895 4.22334C1.43422 4.19983 1.58301 3.885 1.42413 3.97835C1.35516 4.40149 1.38942 4.85897 1.3507 5.30422C1.50779 5.15219 1.44588 4.895 1.43439 4.58283C1.43439 4.5827 1.43439 4.58257 1.43439 4.58243C1.43385 4.56769 1.47491 4.6293 1.46747 4.54553C1.46384 4.50492 1.40092 4.3492 1.42895 4.22334Z" fill="#F3832D"/>
</svg>
