<svg width="8" height="10" viewBox="0 0 8 10" fill="none" xmlns="http://www.w3.org/2000/svg">
<path d="M1 10C0.725 10 0.489583 9.90208 0.29375 9.70625C0.0979167 9.51042 0 9.275 0 9V8.0125C0 7.84583 0.0375 7.69167 0.1125 7.55C0.1875 7.40833 0.2875 7.2875 0.4125 7.1875C0.9875 6.72083 1.41875 6.25 1.70625 5.775C1.99375 5.3 2.19583 4.875 2.3125 4.5H1.5C1.35833 4.5 1.23958 4.45208 1.14375 4.35625C1.04792 4.26042 1 4.14167 1 4C1 3.85833 1.04792 3.73958 1.14375 3.64375C1.23958 3.54792 1.35833 3.5 1.5 3.5H2.125C2.00833 3.31667 1.91667 3.12083 1.85 2.9125C1.78333 2.70417 1.75 2.48333 1.75 2.25C1.75 1.625 1.96875 1.09375 2.40625 0.65625C2.84375 0.21875 3.375 0 4 0C4.625 0 5.15625 0.21875 5.59375 0.65625C6.03125 1.09375 6.25 1.625 6.25 2.25C6.25 2.48333 6.21667 2.70417 6.15 2.9125C6.08333 3.12083 5.99167 3.31667 5.875 3.5H6.5C6.64167 3.5 6.76042 3.54792 6.85625 3.64375C6.95208 3.73958 7 3.85833 7 4C7 4.14167 6.95208 4.26042 6.85625 4.35625C6.76042 4.45208 6.64167 4.5 6.5 4.5H5.6875C5.80417 4.875 6.00625 5.3 6.29375 5.775C6.58125 6.25 7.0125 6.72083 7.5875 7.1875C7.7125 7.2875 7.8125 7.40833 7.8875 7.55C7.9625 7.69167 8 7.84583 8 8.0125V9C8 9.275 7.90208 9.51042 7.70625 9.70625C7.51042 9.90208 7.275 10 7 10H1ZM1 9H7V8C6.23333 7.4 5.67917 6.78125 5.3375 6.14375C4.99583 5.50625 4.76667 4.95833 4.65 4.5H3.35C3.23333 4.95833 3.00417 5.50625 2.6625 6.14375C2.32083 6.78125 1.76667 7.4 1 8V9ZM4 3.5C4.35 3.5 4.64583 3.37917 4.8875 3.1375C5.12917 2.89583 5.25 2.6 5.25 2.25C5.25 1.9 5.12917 1.60417 4.8875 1.3625C4.64583 1.12083 4.35 1 4 1C3.65 1 3.35417 1.12083 3.1125 1.3625C2.87083 1.60417 2.75 1.9 2.75 2.25C2.75 2.6 2.87083 2.89583 3.1125 3.1375C3.35417 3.37917 3.65 3.5 4 3.5Z" fill="#097FC5"/>
</svg>
