<svg width="192" height="162" viewBox="0 0 192 162" fill="none" xmlns="http://www.w3.org/2000/svg">
<g filter="url(#filter0_d_20716_1147)">
<rect width="180" height="150" rx="13" transform="matrix(-1 0 0 1 183 3)" fill="#F0F4F5" shape-rendering="crispEdges"/>
<g clip-path="url(#clip0_20716_1147)">
<path d="M133 68.9926V108.444H53V68.9926C57.883 68.9926 60.4378 71.5852 62.3037 73.4771C63.9007 75.0971 64.6178 75.7541 66.3333 75.7541C68.0489 75.7541 68.7652 75.0971 70.3622 73.4771C72.2281 71.5845 74.783 68.9926 79.6659 68.9926C84.5489 68.9926 87.1044 71.5852 88.9704 73.4771C90.5674 75.0971 91.2837 75.7541 92.9993 75.7541C94.7148 75.7541 95.4311 75.0971 97.0281 73.4771C98.8941 71.5845 101.45 68.9926 106.333 68.9926C111.217 68.9926 113.772 71.5852 115.637 73.4763C117.235 75.0971 117.951 75.7541 119.667 75.7541C121.382 75.7541 122.099 75.0971 123.696 73.4763C125.561 71.5845 128.117 68.9926 133 68.9926Z" fill="#3CC2D8"/>
<path d="M64.7034 98.3704C68.5552 89.5556 71.8397 80.5052 70.2449 71.3333C69.5078 67.0993 68.6967 62.9333 67.8086 59.0489L74.439 52.803L73.7723 52.7096L65.8982 51.6008C64.2856 46.063 62.473 41.6674 60.4619 39.3496C60.4619 39.3496 73.0027 35.9904 87.2427 39.8719C88.1177 40.1099 88.9997 40.3773 89.8886 40.6741C101.119 44.4252 112.975 52.9741 120.325 71.3407C122.297 76.2637 125.518 86.7407 125.518 96.1482" fill="#57AEC3"/>
<path opacity="0.07" d="M125.518 96.1481H113.444C113.444 86.7407 110.223 76.2637 108.251 71.3385C100.901 52.9741 89.0451 44.4252 77.8147 40.6741C76.9298 40.3778 76.0478 40.1104 75.1688 39.8718C72.4087 39.1244 69.5926 38.6019 66.748 38.3096C71.7532 37.7963 79.2288 37.6874 87.2429 39.8718C88.1179 40.1099 88.9999 40.3773 89.8888 40.6741C101.119 44.4252 112.975 52.9741 120.325 71.3407C122.297 76.2637 125.518 86.7407 125.518 96.1481Z" fill="black"/>
<path d="M133 81.9556V113.111H53V81.9556C57.883 81.9556 60.4378 84.5482 62.3037 86.44C63.9007 88.06 64.6178 88.717 66.3333 88.717C68.0489 88.717 68.7652 88.06 70.3622 86.44C72.2281 84.5474 74.783 81.9556 79.6659 81.9556C84.5489 81.9556 87.1044 84.5482 88.9704 86.44C90.5674 88.06 91.2837 88.717 92.9993 88.717C94.7148 88.717 95.4311 88.06 97.0281 86.44C98.8941 84.5474 101.45 81.9556 106.333 81.9556C111.217 81.9556 113.772 84.5482 115.637 86.4393C117.235 88.06 117.951 88.717 119.667 88.717C121.382 88.717 122.099 88.06 123.696 86.4393C125.561 84.5474 128.117 81.9556 133 81.9556Z" fill="#315FAD"/>
<path d="M133 99.7333V112.074C133 113.646 132.376 115.153 131.264 116.264C130.153 117.376 128.646 118 127.074 118H58.9259C57.3543 118 55.847 117.376 54.7357 116.264C53.6243 115.153 53 113.646 53 112.074V99.7333C57.883 99.7333 60.4378 102.326 62.3037 104.218C63.9007 105.838 64.6178 106.495 66.3333 106.495C68.0489 106.495 68.7652 105.838 70.3622 104.218C72.2281 102.325 74.783 99.7333 79.6659 99.7333C84.5489 99.7333 87.1044 102.326 88.9704 104.218C90.5674 105.838 91.2837 106.495 92.9993 106.495C94.7148 106.495 95.4311 105.838 97.0281 104.218C98.8941 102.325 101.45 99.7333 106.333 99.7333C111.217 99.7333 113.772 102.326 115.637 104.217C117.235 105.838 117.951 106.495 119.667 106.495C121.382 106.495 122.099 105.838 123.696 104.217C125.561 102.325 128.117 99.7333 133 99.7333Z" fill="#2F318D"/>
</g>
</g>
<defs>
<filter id="filter0_d_20716_1147" x="0" y="0" width="192" height="162" filterUnits="userSpaceOnUse" color-interpolation-filters="sRGB">
<feFlood flood-opacity="0" result="BackgroundImageFix"/>
<feColorMatrix in="SourceAlpha" type="matrix" values="0 0 0 0 0 0 0 0 0 0 0 0 0 0 0 0 0 0 127 0" result="hardAlpha"/>
<feOffset dx="3" dy="3"/>
<feGaussianBlur stdDeviation="3"/>
<feComposite in2="hardAlpha" operator="out"/>
<feColorMatrix type="matrix" values="0 0 0 0 0 0 0 0 0 0 0 0 0 0 0 0 0 0 0.25 0"/>
<feBlend mode="normal" in2="BackgroundImageFix" result="effect1_dropShadow_20716_1147"/>
<feBlend mode="normal" in="SourceGraphic" in2="effect1_dropShadow_20716_1147" result="shape"/>
</filter>
<clipPath id="clip0_20716_1147">
<rect width="80" height="80" fill="white" transform="translate(53 38)"/>
</clipPath>
</defs>
</svg>
