<svg width="16" height="16" viewBox="0 0 16 16" fill="none" xmlns="http://www.w3.org/2000/svg">
  <rect width="16" height="16" rx="3" fill="#EA6900"/>

  <path
    d="M3.875 15C3.49687 15 3.17318 14.8629 2.90391 14.5887C2.63464 14.3146 2.5 13.985 2.5 13.6V12.2175C2.5 11.9842 2.55156 11.7683 2.65469 11.57C2.75781 11.3717 2.89531 11.2025 3.06719 11.0625C3.85781 10.4092 4.45078 9.75 4.84609 9.085C5.24141 8.42 5.51927 7.825 5.67969 7.3H4.5625C4.36771 7.3 4.20443 7.23292 4.07266 7.09875C3.94089 6.96458 3.875 6.79833 3.875 6.6C3.875 6.40167 3.94089 6.23542 4.07266 6.10125C4.20443 5.96708 4.36771 5.9 4.5625 5.9H5.42188C5.26146 5.64333 5.13542 5.36917 5.04375 5.0775C4.95208 4.78583 4.90625 4.47667 4.90625 4.15C4.90625 3.275 5.20703 2.53125 5.80859 1.91875C6.41016 1.30625 7.14062 1 8 1C8.85938 1 9.58984 1.30625 10.1914 1.91875C10.793 2.53125 11.0938 3.275 11.0938 4.15C11.0938 4.47667 11.0479 4.78583 10.9563 5.0775C10.8646 5.36917 10.7385 5.64333 10.5781 5.9H11.4375C11.6323 5.9 11.7956 5.96708 11.9273 6.10125C12.0591 6.23542 12.125 6.40167 12.125 6.6C12.125 6.79833 12.0591 6.96458 11.9273 7.09875C11.7956 7.23292 11.6323 7.3 11.4375 7.3H10.3203C10.4807 7.825 10.7586 8.42 11.1539 9.085C11.5492 9.75 12.1422 10.4092 12.9328 11.0625C13.1047 11.2025 13.2422 11.3717 13.3453 11.57C13.4484 11.7683 13.5 11.9842 13.5 12.2175V13.6C13.5 13.985 13.3654 14.3146 13.0961 14.5887C12.8268 14.8629 12.5031 15 12.125 15H3.875ZM3.875 13.6H12.125V12.2C11.0708 11.36 10.3089 10.4937 9.83906 9.60125C9.36927 8.70875 9.05417 7.94167 8.89375 7.3H7.10625C6.94583 7.94167 6.63073 8.70875 6.16094 9.60125C5.69115 10.4937 4.92917 11.36 3.875 12.2V13.6ZM8 5.9C8.48125 5.9 8.88802 5.73083 9.22031 5.3925C9.5526 5.05417 9.71875 4.64 9.71875 4.15C9.71875 3.66 9.5526 3.24583 9.22031 2.9075C8.88802 2.56917 8.48125 2.4 8 2.4C7.51875 2.4 7.11198 2.56917 6.77969 2.9075C6.4474 3.24583 6.28125 3.66 6.28125 4.15C6.28125 4.64 6.4474 5.05417 6.77969 5.3925C7.11198 5.73083 7.51875 5.9 8 5.9Z"
    fill="white"
  />
</svg>